<svg width="26" height="23" fill="#DCDCDC" xmlns="http://www.w3.org/2000/svg">
<path d="M24.79 1.078
        a1.407 1.407 0 0 0-1.43-.246
        L1.737 9.328
        a1.406 1.406 0 0 0 .235 2.684
        l5.87 1.183
        v7.242a1.383 1.383 0 0 0 .868 1.301
        c.175.07.362.106.55.106
        a1.383 1.383 0 0 0 .985-.41
        l3.352-3.352 4.945 4.348
        a1.395 1.395 0 0 0 1.36.281 1.418 1.418 0 0 0 .937-1.02
        L25.246 2.45
        a1.383 1.383 0 0 0-.457-1.37Z
        M1.784 10.676
        a.445.445 0 0 1 .293-.48
        l19.828-7.782-13.699 9.89-6.047-1.206
        a.456.456 0 0 1-.375-.422Z
        m7.793 10.09
        a.457.457 0 0 1-.504.105.47.47 0 0 1-.293-.433
        V13.84
        l4.114 3.62-3.317 3.306Z
        M24.332 2.25
        l-4.406 19.23
        a.456.456 0 0 1-.317.34.433.433 0 0 1-.445-.093
        L9.062 12.844
        l15.2-10.98
        a.48.48 0 0 1 .07.386Z"/>
</svg>
